<?xml version="1.0" encoding="UTF-8" standalone="no"?>
<!DOCTYPE svg PUBLIC "-//W3C//DTD SVG 1.1//EN" "http://www.w3.org/Graphics/SVG/1.1/DTD/svg11.dtd">
<svg width="100%" height="100%" viewBox="0 0 1810 598" version="1.1" xmlns="http://www.w3.org/2000/svg" xmlns:xlink="http://www.w3.org/1999/xlink" xml:space="preserve" xmlns:serif="http://www.serif.com/" style="fill-rule:evenodd;clip-rule:evenodd;stroke-linejoin:round;stroke-miterlimit:1.41421;">
    <g transform="matrix(1,0,0,1,-718.233,-902.469)">
        <g transform="matrix(10,0,0,10,718.233,900)">
            <clipPath id="_clip1">
                <path d="M10,0.247L171,0.247C176.523,0.247 181,4.724 181,10.247L181,50C181,55.523 176.523,60 171,60L10,60C4.477,60 0,55.523 0,50L0,10.247C0,4.724 4.477,0.247 10,0.247Z"/>
            </clipPath>
            <g clip-path="url(#_clip1)">
                <rect x="-5" y="-4.753" width="191" height="69.753" style="fill:rgb(242,242,242);"/>
            </g>
        </g>
        <g transform="matrix(10,0,0,10,718.233,900)">
            <clipPath id="_clip2">
                <path d="M44,29.803C44,27.687 42.51,25.968 40.679,25.968C39.785,25.968 38.975,26.382 38.379,27.049C36.116,25.323 33.055,24.223 29.665,24.083L31.519,17.313L36.539,18.677L36.531,18.761C36.531,20.491 37.75,21.898 39.249,21.898C40.746,21.898 41.964,20.491 41.964,18.761C41.964,17.031 40.745,15.623 39.249,15.623C38.099,15.623 37.119,16.456 36.723,17.623L31.311,16.151C31.075,16.085 30.835,16.243 30.761,16.512L28.694,24.062C25.146,24.112 21.932,25.22 19.569,26.999C18.976,26.364 18.19,25.966 17.32,25.966C15.489,25.966 14,27.687 14,29.803C14,31.21 14.666,32.429 15.646,33.096C15.581,33.505 15.539,33.918 15.539,34.339C15.539,40.01 21.549,44.623 28.938,44.623C36.326,44.623 42.338,40.01 42.338,34.339C42.338,33.941 42.301,33.55 42.244,33.164C43.284,32.516 44,31.262 44,29.803ZM22.47,32.436C22.47,31.178 23.358,30.152 24.447,30.152C25.538,30.152 26.424,31.178 26.424,32.436C26.424,33.695 25.538,34.719 24.447,34.719C23.358,34.719 22.47,33.695 22.47,32.436ZM33.796,39.206C32.8,40.356 31.236,40.916 29.016,40.916L29,40.911L28.984,40.916C26.762,40.916 25.199,40.356 24.204,39.206C24.022,38.997 24.022,38.657 24.204,38.448C24.385,38.238 24.68,38.238 24.861,38.448C25.674,39.386 27.022,39.841 28.984,39.841L29,39.846L29.016,39.841C30.978,39.841 32.326,39.385 33.139,38.446C33.32,38.236 33.615,38.238 33.796,38.446C33.978,38.657 33.978,38.996 33.796,39.206ZM33.56,34.719C32.47,34.719 31.584,33.695 31.584,32.436C31.584,31.178 32.47,30.152 33.56,30.152C34.65,30.152 35.536,31.178 35.536,32.436C35.536,33.695 34.65,34.719 33.56,34.719Z" clip-rule="nonzero"/>
            </clipPath>
            <g clip-path="url(#_clip2)">
                <rect x="9" y="10.623" width="40" height="39" style="fill:rgb(255,98,0);"/>
            </g>
        </g>
        <g transform="matrix(10,0,0,10,718.233,897.778)">
            <text x="55px" y="37.377px" style="font-family:'Futura-Medium', 'Futura', sans-serif;font-weight:500;font-size:19.158px;">r/w<tspan x="86.571px 98.087px 105.542px 110.313px " y="37.377px 37.377px 37.377px 37.377px ">orld</tspan>ne<tspan x="142.614px 157.44px " y="37.377px 37.377px ">ws</tspan></text>
        </g>
    </g>
</svg>
