<?xml version="1.0" encoding="UTF-8" standalone="no"?>
<!DOCTYPE svg PUBLIC "-//W3C//DTD SVG 1.1//EN" "http://www.w3.org/Graphics/SVG/1.1/DTD/svg11.dtd">
<svg width="100%" height="100%" viewBox="0 0 332 269" version="1.1" xmlns="http://www.w3.org/2000/svg" xmlns:xlink="http://www.w3.org/1999/xlink" xml:space="preserve" xmlns:serif="http://www.serif.com/" style="fill-rule:evenodd;clip-rule:evenodd;stroke-linecap:round;stroke-linejoin:round;stroke-miterlimit:1.5;">
    <g transform="matrix(1,0,0,1,-109.778,-18.5849)">
        <g transform="matrix(4.33943e-17,-0.708682,0.905641,5.54545e-17,127.432,316.515)">
            <path d="M75.181,44.625L75.181,40.63L409.965,40.63L409.965,36.92L417.258,42.628L409.965,48.335L409.965,44.625L75.181,44.625Z" style="stroke:black;stroke-width:4.92px;"/>
        </g>
        <g transform="matrix(0.80362,-6.32916e-33,1.11629e-32,0.905641,103.814,222.819)">
            <path d="M75.181,44.625L75.181,40.63L410.826,40.63L410.826,36.92L417.258,42.628L410.826,48.335L410.826,44.625L75.181,44.625Z" style="stroke:black;stroke-width:4.67px;"/>
        </g>
        <g transform="matrix(0.821604,0,0,1,104.488,1.78521)">
            <rect x="112.094" y="39.73" width="51.978" height="216.74" style="fill-opacity:0.635294;"/>
        </g>
        <g transform="matrix(0.821604,0,0,0.667585,179.368,87.0398)">
            <rect x="112.094" y="39.73" width="51.978" height="216.74" style="fill-opacity:0.635294;"/>
        </g>
        <g transform="matrix(0.821604,0,0,0.41933,254.249,150.71)">
            <rect x="112.094" y="39.73" width="51.978" height="216.74" style="fill-opacity:0.635294;"/>
        </g>
        <g transform="matrix(1,0,0,1,1.00949,-6.72378)">
            <text x="196.584px" y="290.338px" style="font-family:'Futura-Medium', 'Futura', sans-serif;font-weight:500;font-size:15px;">1 Da<tspan x="230.488px " y="290.338px ">y</tspan></text>
        </g>
        <g transform="matrix(1,0,0,1,75.89,-6.72378)">
            <text x="196.584px" y="290.338px" style="font-family:'Futura-Medium', 'Futura', sans-serif;font-weight:500;font-size:15px;">3 Da<tspan x="230.488px " y="290.338px ">y</tspan></text>
        </g>
        <g transform="matrix(1,0,0,1,150.771,-6.72378)">
            <text x="196.584px" y="290.338px" style="font-family:'Futura-Medium', 'Futura', sans-serif;font-weight:500;font-size:15px;">5 Da<tspan x="230.488px " y="290.338px ">y</tspan></text>
        </g>
        <g transform="matrix(1,0,0,1,17.8295,-6.78529)">
            <text x="90.508px" y="56.98px" style="font-family:'Futura-Medium', 'Futura', sans-serif;font-weight:500;font-size:38.305px;">%</text>
        </g>
        <g transform="matrix(6.12323e-17,-1,1,6.12323e-17,88.7875,161.12)">
            <text x="108.389px" y="63.928px" style="font-family:'Futura-Medium', 'Futura', sans-serif;font-weight:500;font-size:8.511px;">Accuraty</text>
        </g>
    </g>
</svg>
