<?xml version="1.0" encoding="UTF-8" standalone="no"?>
<!DOCTYPE svg PUBLIC "-//W3C//DTD SVG 1.1//EN" "http://www.w3.org/Graphics/SVG/1.1/DTD/svg11.dtd">
<svg width="100%" height="100%" viewBox="0 0 100 210" version="1.1" xmlns="http://www.w3.org/2000/svg" xmlns:xlink="http://www.w3.org/1999/xlink" xml:space="preserve" xmlns:serif="http://www.serif.com/" style="fill-rule:evenodd;clip-rule:evenodd;stroke-miterlimit:10;">
    <g transform="matrix(1.50458,0,0,1,2.14676,0)">
        <rect x="-4.255" y="-3.063" width="82.801" height="233.871" style="fill:rgb(216,216,216);"/>
    </g>
    <g transform="matrix(1.80972,0,0,1.80972,17.5638,71.9051)">
        <clipPath id="_clip1">
            <path d="M-264,-207L39,-207C44.523,-207 49,-202.523 49,-197L49,45C49,50.523 44.523,55 39,55L-264,55C-269.523,55 -274,50.523 -274,45L-274,-197C-274,-202.523 -269.523,-207 -264,-207Z"/>
        </clipPath>
        <g clip-path="url(#_clip1)">
            <g>
                <clipPath id="_clip2">
                    <path d="M18,35C27.389,35 35,27.389 35,18C35,8.611 27.389,1 18,1C8.611,1 1,8.611 1,18C1,27.389 8.611,35 18,35Z"/>
                </clipPath>
                <g clip-path="url(#_clip2)">
                    <rect x="0" y="0" width="36" height="36" style="fill:rgb(224,223,224);"/>
                </g>
                <g transform="matrix(-1,-0,0,-1,35,35)">
                    <circle cx="17" cy="17" r="17" style="fill:none;stroke:rgb(168,168,168);stroke-width:0.55px;"/>
                </g>
            </g>
        </g>
    </g>
    <g transform="matrix(1.80972,0,0,1.80972,33.8512,88.1926)">
        <clipPath id="_clip3">
            <path d="M-273,-216L30,-216C35.523,-216 40,-211.523 40,-206L40,36C40,41.523 35.523,46 30,46L-273,46C-278.523,46 -283,41.523 -283,36L-283,-206C-283,-211.523 -278.523,-216 -273,-216Z"/>
        </clipPath>
        <g clip-path="url(#_clip3)">
            <g>
                <clipPath id="_clip4">
                    <path d="M4.641,6.539C4.97,6.209 5.335,5.938 5.724,5.723C7.889,4.53 10.666,5.165 12.058,7.275L10.373,8.959C9.89,7.857 8.691,7.23 7.498,7.497C7.048,7.598 6.622,7.822 6.273,8.171L3.045,11.4C2.064,12.38 2.064,13.975 3.045,14.955C4.025,15.935 5.62,15.935 6.6,14.955L7.595,13.96C8.501,14.319 9.471,14.462 10.43,14.391L8.233,16.588C6.349,18.471 3.296,18.471 1.413,16.588C-0.471,14.704 -0.471,11.651 1.413,9.768L4.641,6.539ZM9.768,1.412L7.571,3.609C8.529,3.537 9.5,3.681 10.406,4.039L11.4,3.045C12.381,2.064 13.975,2.064 14.955,3.045C15.936,4.025 15.936,5.619 14.955,6.599L11.726,9.828C10.743,10.811 9.146,10.803 8.171,9.828C7.944,9.601 7.748,9.318 7.626,9.04L5.941,10.724C6.118,10.992 6.302,11.224 6.538,11.46C7.147,12.069 7.923,12.523 8.816,12.738C9.972,13.016 11.211,12.862 12.276,12.275C12.664,12.061 13.029,11.789 13.359,11.46L16.587,8.231C18.471,6.348 18.471,3.295 16.588,1.412C14.704,-0.471 11.651,-0.471 9.768,1.412Z" clip-rule="nonzero"/>
                </clipPath>
                <g clip-path="url(#_clip4)">
                    <rect x="0" y="0" width="18" height="18"/>
                </g>
            </g>
        </g>
    </g>
</svg>
