<?xml version="1.0" encoding="UTF-8" standalone="no"?>
<!DOCTYPE svg PUBLIC "-//W3C//DTD SVG 1.1//EN" "http://www.w3.org/Graphics/SVG/1.1/DTD/svg11.dtd">
<svg width="100%" height="100%" viewBox="0 0 2516 2516" version="1.1" xmlns="http://www.w3.org/2000/svg" xmlns:xlink="http://www.w3.org/1999/xlink" xml:space="preserve" xmlns:serif="http://www.serif.com/" style="fill-rule:evenodd;clip-rule:evenodd;stroke-linejoin:round;stroke-miterlimit:1.41421;">
    <g transform="matrix(1,0,0,1,5.48767,-440.367)">
        <g transform="matrix(45.9127,0,0,45.9127,425.969,871.823)">
            <clipPath id="_clip1">
                <path d="M-264,-207L39,-207C44.523,-207 49,-202.523 49,-197L49,45C49,50.523 44.523,55 39,55L-264,55C-269.523,55 -274,50.523 -274,45L-274,-197C-274,-202.523 -269.523,-207 -264,-207Z"/>
            </clipPath>
            <g clip-path="url(#_clip1)">
                <g>
                    <clipPath id="_clip2">
                        <path d="M18,35C27.389,35 35,27.389 35,18C35,8.611 27.389,1 18,1C8.611,1 1,8.611 1,18C1,27.389 8.611,35 18,35Z"/>
                    </clipPath>
                    <g clip-path="url(#_clip2)">
                        <rect x="0" y="0" width="36" height="36" style="fill:rgb(224,223,224);stroke:rgb(128,128,128);stroke-width:2.07px;"/>
                    </g>
                    <g transform="matrix(-1,-0,0,-1,35,35)">
                        <circle cx="17" cy="17" r="17" style="fill:none;stroke:rgb(128,128,128);stroke-width:2.07px;stroke-linejoin:miter;stroke-miterlimit:10;"/>
                    </g>
                    <clipPath id="_clip3">
                        <path d="M13.641,15.539C13.97,15.209 14.335,14.938 14.724,14.723C16.889,13.53 19.666,14.165 21.058,16.275L19.373,17.959C18.89,16.857 17.691,16.23 16.498,16.497C16.048,16.598 15.622,16.822 15.273,17.171L12.045,20.4C11.064,21.38 11.064,22.975 12.045,23.955C13.025,24.935 14.62,24.935 15.6,23.955L16.595,22.96C17.501,23.319 18.471,23.462 19.43,23.391L17.233,25.588C15.349,27.471 12.296,27.471 10.413,25.588C8.529,23.704 8.529,20.651 10.413,18.768L13.641,15.539ZM18.768,10.412L16.571,12.609C17.529,12.537 18.5,12.681 19.406,13.039L20.4,12.045C21.381,11.064 22.975,11.064 23.955,12.045C24.936,13.025 24.936,14.619 23.955,15.599L20.726,18.828C19.743,19.811 18.146,19.803 17.171,18.828C16.944,18.601 16.748,18.318 16.626,18.04L14.941,19.724C15.118,19.992 15.302,20.224 15.538,20.46C16.147,21.069 16.923,21.523 17.816,21.738C18.972,22.016 20.211,21.862 21.276,21.275C21.664,21.061 22.029,20.789 22.359,20.46L25.587,17.231C27.471,15.348 27.471,12.295 25.588,10.412C23.704,8.529 20.651,8.529 18.768,10.412Z" clip-rule="nonzero"/>
                    </clipPath>
                    <g clip-path="url(#_clip3)">
                        <rect x="4" y="4" width="28" height="28" style="stroke:rgb(128,128,128);stroke-width:2.07px;"/>
                    </g>
                </g>
            </g>
        </g>
    </g>
</svg>
