<?xml version="1.0" encoding="UTF-8" standalone="no"?>
<!DOCTYPE svg PUBLIC "-//W3C//DTD SVG 1.1//EN" "http://www.w3.org/Graphics/SVG/1.1/DTD/svg11.dtd">
<svg width="100%" height="100%" viewBox="0 0 2369 546" version="1.1" xmlns="http://www.w3.org/2000/svg" xmlns:xlink="http://www.w3.org/1999/xlink" xml:space="preserve" xmlns:serif="http://www.serif.com/" style="fill-rule:evenodd;clip-rule:evenodd;stroke-linecap:round;stroke-linejoin:round;">
    <g transform="matrix(1,0,0,1,-311.809,-707.858)">
        <g transform="matrix(7.3067,0,0,7.3067,319.967,717.389)">
            <path id="Fill-1" d="M77.928,56L84.071,56L84.071,28.518L77.928,28.518L77.928,56ZM77,17.091C77,15.981 77.39,15.022 78.174,14.213C78.956,13.404 79.894,13 80.986,13C82.096,13 83.043,13.404 83.825,14.213C84.608,15.002 85,15.972 85,17.12C85,18.267 84.608,19.245 83.825,20.053C83.061,20.862 82.124,21.267 81.014,21.267C79.903,21.267 78.956,20.862 78.174,20.053C77.39,19.245 77,18.258 77,17.091Z"/>
        </g>
        <g transform="matrix(7.3067,0,0,7.3067,319.967,717.389)">
            <path id="Fill-2" d="M92,27.755L98.465,27.755L98.465,30.272C100.716,28.091 103.252,27 106.075,27C109.317,27 111.842,27.997 113.654,29.993C115.219,31.689 116,34.459 116,38.3L116,55L109.535,55L109.535,39.783C109.535,37.097 109.154,35.242 108.392,34.216C107.647,33.172 106.294,32.651 104.329,32.651C102.193,32.651 100.678,33.34 99.781,34.72C98.904,36.082 98.465,38.459 98.465,41.853L98.465,55L92,55L92,27.755"/>
        </g>
        <g transform="matrix(7.3067,0,0,7.3067,319.967,717.389)">
            <path id="Fill-3" d="M143.608,8L150,8L150,55.218L143.608,55.218L143.608,52.366C141.1,54.789 138.263,56 135.095,56C131.324,56 128.194,54.639 125.705,51.918C123.236,49.142 122,45.675 122,41.519C122,37.456 123.236,34.064 125.705,31.343C128.156,28.603 131.239,27.233 134.954,27.233C138.178,27.233 141.063,28.538 143.608,31.147L143.608,8ZM128.506,41.519C128.506,44.128 129.213,46.252 130.627,47.892C132.078,49.552 133.907,50.38 136.114,50.38C138.47,50.38 140.374,49.58 141.826,47.977C143.278,46.318 144.004,44.212 144.004,41.658C144.004,39.105 143.278,37 141.826,35.34C140.374,33.719 138.489,32.909 136.17,32.909C133.982,32.909 132.153,33.728 130.683,35.369C129.232,37.027 128.506,39.078 128.506,41.519Z"/>
        </g>
        <g transform="matrix(7.3067,0,0,7.3067,319.967,717.389)">
            <path id="Fill-4" d="M158.929,56L165.072,56L165.072,28.518L158.929,28.518L158.929,56ZM158,17.091C158,15.981 158.392,15.022 159.175,14.213C159.957,13.404 160.894,13 161.986,13C163.097,13 164.044,13.404 164.826,14.213C165.61,15.002 166,15.972 166,17.12C166,18.267 165.61,19.245 164.826,20.053C164.062,20.862 163.124,21.267 162.014,21.267C160.903,21.267 159.957,20.862 159.175,20.053C158.392,19.245 158,18.258 158,17.091Z"/>
        </g>
        <g transform="matrix(7.3067,0,0,7.3067,319.967,717.389)">
            <path id="Fill-5" d="M194,28.944L194,37.371C192.532,35.605 191.216,34.393 190.052,33.735C188.908,33.059 187.563,32.721 186.019,32.721C183.596,32.721 181.585,33.557 179.983,35.23C178.381,36.901 177.58,38.996 177.58,41.514C177.58,44.088 178.352,46.201 179.898,47.856C181.461,49.509 183.454,50.335 185.876,50.335C187.421,50.335 188.785,50.007 189.967,49.349C191.111,48.71 192.455,47.47 194,45.629L194,53.999C191.388,55.333 188.775,56 186.161,56C181.852,56 178.248,54.628 175.349,51.885C172.45,49.123 171,45.694 171,41.598C171,37.503 172.469,34.046 175.406,31.227C178.343,28.409 181.947,27 186.219,27C188.965,27 191.559,27.648 194,28.944"/>
        </g>
        <g transform="matrix(7.3067,0,0,7.3067,319.967,717.389)">
            <path id="Fill-6" d="M220.608,27.761L227,27.761L227,55.211L220.608,55.211L220.608,52.336C217.986,54.779 215.168,56 212.151,56C208.343,56 205.194,54.628 202.705,51.885C200.235,49.086 199,45.591 199,41.402C199,37.287 200.235,33.858 202.705,31.115C205.175,28.372 208.267,27 211.981,27C215.187,27 218.063,28.316 220.608,30.945L220.608,27.761ZM205.505,41.402C205.505,44.032 206.212,46.173 207.627,47.826C209.078,49.499 210.907,50.335 213.113,50.335C215.47,50.335 217.374,49.528 218.826,47.912C220.277,46.24 221.004,44.116 221.004,41.542C221.004,38.968 220.277,36.845 218.826,35.172C217.374,33.538 215.489,32.721 213.17,32.721C210.982,32.721 209.153,33.547 207.683,35.202C206.23,36.873 205.505,38.94 205.505,41.402Z"/>
        </g>
        <g transform="matrix(7.3067,0,0,7.3067,319.967,717.389)">
            <path id="Fill-7" d="M241.061,33.762L241.061,55L234.71,55L234.71,33.762L232,33.762L232,27.924L234.71,27.924L234.71,18L241.061,18L241.061,27.924L246,27.924L246,33.762L241.061,33.762"/>
        </g>
        <g transform="matrix(7.3067,0,0,7.3067,319.967,717.389)">
            <path id="Fill-8" d="M251,51.971C251,50.897 251.394,49.966 252.18,49.18C252.967,48.394 253.907,48 255,48C256.094,48 257.034,48.394 257.82,49.18C258.608,49.966 259,50.906 259,52C259,53.113 258.608,54.063 257.82,54.849C257.053,55.616 256.113,56 255,56C253.869,56 252.918,55.616 252.151,54.849C251.384,54.082 251,53.123 251,51.971"/>
        </g>
        <g transform="matrix(7.3067,0,0,7.3067,319.967,717.389)">
            <path id="Fill-9" d="M290,28.944L290,37.371C288.532,35.605 287.217,34.393 286.053,33.735C284.909,33.059 283.564,32.721 282.019,32.721C279.597,32.721 277.584,33.557 275.982,35.23C274.381,36.901 273.58,38.996 273.58,41.514C273.58,44.088 274.352,46.201 275.897,47.856C277.461,49.509 279.453,50.335 281.876,50.335C283.42,50.335 284.784,50.007 285.967,49.349C287.111,48.71 288.456,47.47 290,45.629L290,53.999C287.387,55.333 284.775,56 282.162,56C277.851,56 274.247,54.628 271.349,51.885C268.449,49.123 267,45.694 267,41.598C267,37.503 268.468,34.046 271.406,31.227C274.342,28.409 277.947,27 282.219,27C284.966,27 287.559,27.648 290,28.944"/>
        </g>
        <g transform="matrix(7.3067,0,0,7.3067,319.967,717.389)">
            <path id="Fill-10" d="M294,41.289C294,37.324 295.405,33.951 298.214,31.171C301.024,28.39 304.447,27 308.486,27C312.542,27 315.985,28.4 318.814,31.199C321.605,33.998 323,37.437 323,41.514C323,45.629 321.595,49.077 318.785,51.857C315.957,54.619 312.487,56 308.374,56C304.299,56 300.885,54.591 298.131,51.773C295.377,48.992 294,45.497 294,41.289ZM300.42,41.402C300.42,44.144 301.145,46.315 302.596,47.912C304.085,49.528 306.048,50.335 308.486,50.335C310.942,50.335 312.906,49.537 314.375,47.94C315.846,46.343 316.58,44.21 316.58,41.542C316.58,38.875 315.846,36.741 314.375,35.144C312.887,33.529 310.924,32.721 308.486,32.721C306.086,32.721 304.141,33.529 302.653,35.144C301.164,36.76 300.42,38.846 300.42,41.402Z"/>
        </g>
        <g transform="matrix(7.3067,0,0,7.3067,319.967,717.389)">
            <path id="Fill-11" d="M170.395,61.289L170.451,61.289L170.451,61.488C170.471,61.47 170.493,61.461 170.518,61.461C170.545,61.461 170.567,61.47 170.584,61.488C170.598,61.503 170.605,61.528 170.605,61.562L170.605,61.711L170.548,61.711L170.548,61.567C170.548,61.548 170.545,61.534 170.538,61.525C170.531,61.516 170.52,61.512 170.505,61.512C170.485,61.512 170.471,61.518 170.463,61.53C170.455,61.542 170.451,61.564 170.451,61.594L170.451,61.711L170.395,61.711L170.395,61.289" style="fill:rgb(0,74,251);"/>
        </g>
        <g transform="matrix(7.3067,0,0,7.3067,319.967,717.389)">
            <path id="Fill-12" d="M31.042,37C22.178,47.62 3.262,37.161 12.461,43.384C21.659,49.606 28.921,48.162 28.921,48.162C28.921,48.162 25.813,67.845 26.77,70.624C27.728,73.402 31.053,71.339 32.259,69.959C33.642,68.38 40.481,47.176 49.034,70.244C49.757,72.195 56,70.136 56,70.136"/>
        </g>
        <g transform="matrix(7.3067,0,0,7.3067,319.967,717.389)">
            <path id="Stroke-13" d="M31.042,37C22.178,47.62 3.262,37.161 12.461,43.384C21.659,49.606 28.921,48.162 28.921,48.162C28.921,48.162 25.813,67.845 26.77,70.624C27.728,73.402 31.053,71.339 32.259,69.959C33.642,68.38 40.481,47.176 49.034,70.244C49.757,72.195 56,70.136 56,70.136" style="fill:none;stroke:black;stroke-width:2.61px;"/>
        </g>
        <g transform="matrix(7.3067,0,0,7.3067,319.967,717.389)">
            <path id="Fill-14" d="M30.4,35.977C14.24,28.501 17.979,4.732 25.031,0.103C26.279,-0.718 30.822,7.958 33.981,7.572C39.884,6.85 47.011,6.986 47.011,6.986C47.011,6.986 55.051,-0.855 55.56,0.077C72.909,31.841 46.205,36.347 51.7,36.673C60.782,37.212 67.04,60.801 62.465,53.882C57.89,46.963 52.16,45.748 52.16,45.748C52.16,45.748 53.698,63.756 55.824,70"/>
        </g>
        <g transform="matrix(7.3067,0,0,7.3067,319.967,717.389)">
            <path id="Stroke-15" d="M30.4,35.977C14.24,28.501 17.979,4.732 25.031,0.103C26.279,-0.718 30.822,7.958 33.981,7.572C39.884,6.85 47.011,6.986 47.011,6.986C47.011,6.986 55.051,-0.855 55.56,0.077C72.909,31.841 46.205,36.347 51.7,36.673C60.782,37.212 67.04,60.801 62.465,53.882C57.89,46.963 52.16,45.748 52.16,45.748C52.16,45.748 53.698,63.756 55.824,70" style="fill:none;stroke:black;stroke-width:2.61px;"/>
        </g>
        <g transform="matrix(7.3067,0,0,7.3067,319.967,717.389)">
            <path id="Stroke-16" d="M31,37C31,37.171 31.059,37.176 31.213,37.326C31.368,37.48 31.414,37.793 31.52,37.98C31.657,38.224 31.927,38.375 32.086,38.609C32.542,39.286 32.801,40.09 33.266,40.779C33.878,41.685 34.807,42.496 35.296,43.462C36.012,44.876 37.038,46.082 37.869,47.428C38.23,48.012 38.527,48.779 38.978,49.295C39.183,49.527 39.424,49.689 39.662,49.877C40.029,50.166 40.283,50.647 40.655,50.973C41.326,51.564 42.075,52.164 42.661,52.84C43.061,53.301 43.568,53.709 43.936,54.193C44.438,54.856 44.912,55.531 45.445,56.176C46.122,56.992 46.577,57.96 47.193,58.813C48.308,60.355 49.498,61.838 50.615,63.384C51.212,64.211 51.487,65.254 52.009,66.113C52.222,66.467 52.726,66.729 53,67" style="fill:none;stroke:black;stroke-width:2.61px;"/>
        </g>
        <g transform="matrix(7.3067,0,0,7.3067,319.967,717.389)">
            <path id="Fill-17" d="M32.499,16C35.535,16 38,18.465 38,21.501C38,24.535 35.535,27 32.499,27C29.464,27 27,24.535 27,21.501C27,18.465 29.464,16 32.499,16Z" style="fill:white;"/>
        </g>
        <g transform="matrix(7.3067,0,0,7.3067,319.967,717.389)">
            <path id="Stroke-18" d="M32.499,16C35.535,16 38,18.465 38,21.501C38,24.535 35.535,27 32.499,27C29.464,27 27,24.535 27,21.501C27,18.465 29.464,16 32.499,16Z" style="fill:none;stroke:black;stroke-width:2.61px;"/>
        </g>
        <g transform="matrix(7.3067,0,0,7.3067,319.967,717.389)">
            <path id="Fill-19" d="M31.499,21C32.327,21 33,21.672 33,22.499C33,23.327 32.327,24 31.499,24C30.672,24 30,23.327 30,22.499C30,21.672 30.672,21 31.499,21Z"/>
        </g>
        <g transform="matrix(7.3067,0,0,7.3067,319.967,717.389)">
            <path id="Stroke-20" d="M31.499,21C32.327,21 33,21.672 33,22.499C33,23.327 32.327,24 31.499,24C30.672,24 30,23.327 30,22.499C30,21.672 30.672,21 31.499,21Z" style="fill:none;stroke:black;stroke-width:2.61px;"/>
        </g>
        <g transform="matrix(7.3067,0,0,7.3067,319.967,717.389)">
            <path id="Fill-21" d="M49.501,15C52.536,15 55,17.465 55,20.499C55,23.535 52.536,26 49.501,26C46.465,26 44,23.535 44,20.499C44,17.465 46.465,15 49.501,15Z" style="fill:white;"/>
        </g>
        <g transform="matrix(7.3067,0,0,7.3067,319.967,717.389)">
            <path id="Stroke-22" d="M49.501,15C52.536,15 55,17.465 55,20.499C55,23.535 52.536,26 49.501,26C46.465,26 44,23.535 44,20.499C44,17.465 46.465,15 49.501,15Z" style="fill:none;stroke:black;stroke-width:2.61px;"/>
        </g>
        <g transform="matrix(7.3067,0,0,7.3067,319.967,717.389)">
            <path id="Fill-23" d="M48.5,20C49.328,20 50,20.672 50,21.5C50,22.328 49.328,23 48.5,23C47.672,23 47,22.328 47,21.5C47,20.672 47.672,20 48.5,20Z"/>
        </g>
        <g transform="matrix(7.3067,0,0,7.3067,319.967,717.389)">
            <path id="Stroke-24" d="M48.5,20C49.328,20 50,20.672 50,21.5C50,22.328 49.328,23 48.5,23C47.672,23 47,22.328 47,21.5C47,20.672 47.672,20 48.5,20Z" style="fill:none;stroke:black;stroke-width:2.61px;"/>
        </g>
        <g transform="matrix(7.3067,0,0,7.3067,319.967,717.389)">
            <path id="Fill-25" d="M12.072,34.507C11.921,34.109 11.46,33.902 11.043,34.045L9.531,34.566C9.113,34.709 8.897,35.15 9.048,35.549L13.928,48.492C14.079,48.891 14.539,49.098 14.956,48.954L16.468,48.434C16.886,48.29 17.103,47.851 16.952,47.452L12.072,34.507"/>
        </g>
        <g transform="matrix(7.3067,0,0,7.3067,319.967,717.389)">
            <path id="Stroke-26" d="M8.845,20.116C12.917,20.838 15.62,24.733 14.877,28.807C14.134,32.883 10.226,35.606 6.154,34.884C2.083,34.162 -0.62,30.267 0.123,26.193C0.865,22.117 4.774,19.394 8.845,20.116Z" style="fill:none;stroke:black;stroke-width:2.23px;"/>
        </g>
        <g transform="matrix(7.3067,0,0,7.3067,319.967,717.389)">
            <path id="Fill-27" d="M31,58L50,58L50,35L31,35L31,58Z"/>
        </g>
    </g>
</svg>
