<?xml version="1.0" encoding="UTF-8" standalone="no"?>
<!DOCTYPE svg PUBLIC "-//W3C//DTD SVG 1.1//EN" "http://www.w3.org/Graphics/SVG/1.1/DTD/svg11.dtd">
<svg width="100%" height="100%" viewBox="0 0 228 461" version="1.1" xmlns="http://www.w3.org/2000/svg" xmlns:xlink="http://www.w3.org/1999/xlink" xml:space="preserve" xmlns:serif="http://www.serif.com/" style="fill-rule:evenodd;clip-rule:evenodd;stroke-linejoin:round;stroke-miterlimit:1.41421;">
    <g transform="matrix(1,0,0,1,-67,-28.5118)">
        <g id="Group" transform="matrix(0.855937,0,0,0.855937,67,28.5118)">
            <path id="Shape" d="M235.858,492.959C205.674,445.848 164.006,403.469 161.841,345.079L135.859,345.079C138.088,412.112 181.122,454.902 212.582,503.994C214.425,507.879 211.705,512.277 207.723,512.277L191.432,512.277L130.42,422.247L85.054,422.247C96.305,400.833 108.897,378.338 110.005,345.079L84.1,345.079C81.922,403.508 40.009,446.221 10.083,492.959C7.957,497.422 6.977,502.052 6.977,506.554C6.977,523.055 20.162,538 38.205,538L207.723,538C225.766,538 238.964,523.055 238.964,506.541C238.964,502.039 237.984,497.422 235.858,492.959ZM199.718,253.305C199.718,278.115 179.596,298.211 154.803,298.211C130.01,298.211 109.889,278.115 109.889,253.305C109.889,228.494 130.01,208.399 154.803,208.399C179.596,208.399 199.718,228.494 199.718,253.305ZM266,81.964C266,127.263 229.077,163.929 183.584,163.929C138.09,163.929 101.167,127.263 101.167,81.964C101.167,36.665 138.09,0 183.584,0C229.077,0 266,36.665 266,81.964ZM121.226,312.162C121.226,326.12 109.921,337.449 95.934,337.449C81.948,337.449 70.643,326.12 70.643,312.162C70.643,298.204 81.948,286.875 95.934,286.875C109.921,286.875 121.226,298.204 121.226,312.162ZM121.226,175.7C121.226,209.152 94.132,236.301 60.613,236.301C27.094,236.301 0,209.152 0,175.7C0,142.248 27.094,115.099 60.613,115.099C94.132,115.099 121.226,142.248 121.226,175.7Z" style="fill-rule:nonzero;"/>
            <path id="Path" d="M177.043,240.534C175.406,241.252 173.647,241.736 171.802,241.954C173.686,240.838 175.134,239.069 175.814,236.961C174.051,237.995 172.098,238.747 170.019,239.152C168.356,237.398 165.982,236.301 163.358,236.301C157.466,236.301 153.137,241.738 154.468,247.382C146.886,247.006 140.162,243.413 135.661,237.953C133.27,242.009 134.421,247.316 138.483,250.003C136.99,249.955 135.581,249.55 134.352,248.874C134.252,253.055 137.282,256.966 141.671,257.837C140.387,258.182 138.98,258.262 137.549,257.991C138.709,261.576 142.079,264.185 146.074,264.258C142.238,267.233 137.405,268.562 132.564,267.997C136.602,270.558 141.4,272.052 146.552,272.052C163.495,272.052 173.067,257.899 172.489,245.206C174.272,243.932 175.819,242.343 177.043,240.534Z" style="fill:white;fill-rule:nonzero;"/>
            <path id="Shape1" serif:id="Shape" d="M91.574,175.112C91.574,171.232 88.412,168.078 84.525,168.078C82.629,168.078 80.91,168.839 79.644,170.062C74.843,166.895 68.346,164.879 61.152,164.621L65.086,152.204L75.74,154.706L75.724,154.86C75.724,158.033 78.31,160.613 81.491,160.613C84.669,160.613 87.252,158.033 87.252,154.86C87.252,151.688 84.666,149.105 81.491,149.105C79.05,149.105 76.97,150.632 76.13,152.773L64.646,150.073C64.145,149.951 63.635,150.241 63.479,150.736L59.091,164.584C51.563,164.674 44.742,166.706 39.726,169.969C38.469,168.804 36.8,168.075 34.954,168.075C31.068,168.075 27.908,171.232 27.908,175.112C27.908,177.692 29.322,179.929 31.402,181.152C31.264,181.902 31.174,182.66 31.174,183.431C31.174,193.833 43.928,202.295 59.608,202.295C75.289,202.295 88.046,193.833 88.046,183.431C88.046,182.703 87.969,181.985 87.847,181.277C90.054,180.088 91.574,177.788 91.574,175.112ZM45.351,179.625C45.351,177.222 47.308,175.264 49.713,175.264C52.117,175.264 54.072,177.222 54.072,179.625C54.072,182.029 52.117,183.984 49.713,183.984C47.308,183.984 45.351,182.029 45.351,179.625ZM69.482,191.914C67.368,194.204 64.05,195.319 59.339,195.319L59.305,195.311L59.27,195.319C54.557,195.319 51.239,194.204 49.128,191.914C48.743,191.498 48.743,190.819 49.128,190.403C49.512,189.985 50.138,189.985 50.523,190.403C52.247,192.272 55.109,193.179 59.27,193.179L59.305,193.188L59.339,193.179C63.501,193.179 66.363,192.269 68.087,190.401C68.471,189.982 69.097,189.985 69.482,190.401C69.867,190.819 69.867,191.495 69.482,191.914ZM69.77,183.984C67.365,183.984 65.41,182.029 65.41,179.625C65.41,177.222 67.365,175.264 69.77,175.264C72.176,175.264 74.131,177.222 74.131,179.625C74.131,182.029 72.176,183.984 69.77,183.984Z" style="fill:white;fill-rule:nonzero;"/>
            <path id="Shape2" serif:id="Shape" d="M206.913,72.198C194.513,72.198 184.456,82.39 184.456,94.957C184.456,107.523 194.513,117.715 206.913,117.715C219.313,117.715 229.37,107.523 229.37,94.957C229.37,82.39 219.313,72.198 206.913,72.198ZM208.785,104.341L208.785,106.336L206.913,106.336L206.913,104.443C204.974,104.409 202.972,103.942 201.299,103.066L202.152,99.948C203.941,100.654 206.322,101.401 208.186,100.972C210.334,100.479 210.776,98.238 208.399,97.16C206.659,96.337 201.329,95.636 201.329,91.008C201.329,88.425 203.275,86.107 206.913,85.603L206.913,83.577L208.785,83.577L208.785,85.508C210.139,85.546 211.659,85.785 213.355,86.305L212.677,89.43C211.24,88.918 209.653,88.455 208.103,88.55C205.319,88.713 205.072,91.16 207.018,92.184C210.222,93.709 214.399,94.839 214.399,98.909C214.403,102.163 211.884,103.897 208.785,104.341ZM179.175,83.577L169.484,83.577L169.484,75.991L183.576,75.991C181.765,78.275 180.279,80.824 179.175,83.577ZM176.97,94.957L169.484,94.957L169.484,87.371L177.958,87.371C177.337,89.802 176.97,92.336 176.97,94.957ZM187.177,72.198L169.484,72.198L169.484,64.612L195.684,64.612L195.684,66.846C192.544,68.14 189.681,69.964 187.177,72.198ZM195.684,49.44L169.484,49.44L169.484,41.854L195.684,41.854L195.684,49.44ZM195.684,60.819L169.484,60.819L169.484,53.233L195.684,53.233L195.684,60.819ZM179.175,106.336L169.484,106.336L169.484,98.75L177.228,98.75C177.558,101.397 178.216,103.942 179.175,106.336ZM139.541,64.612L165.741,64.612L165.741,72.198L139.541,72.198L139.541,64.612ZM139.541,75.991L165.741,75.991L165.741,83.577L139.541,83.577L139.541,75.991ZM187.177,117.715L169.484,117.715L169.484,110.129L181.02,110.129C182.659,112.985 184.74,115.545 187.177,117.715ZM139.541,98.75L165.741,98.75L165.741,106.336L139.541,106.336L139.541,98.75ZM139.541,110.129L165.741,110.129L165.741,117.715L139.541,117.715L139.541,110.129ZM139.541,87.371L165.741,87.371L165.741,94.957L139.541,94.957L139.541,87.371Z" style="fill:white;fill-rule:nonzero;"/>
        </g>
    </g>
</svg>
