<?xml version="1.0" encoding="UTF-8" standalone="no"?>
<!DOCTYPE svg PUBLIC "-//W3C//DTD SVG 1.1//EN" "http://www.w3.org/Graphics/SVG/1.1/DTD/svg11.dtd">
<svg width="100%" height="100%" viewBox="0 0 600 300" version="1.1" xmlns="http://www.w3.org/2000/svg" xmlns:xlink="http://www.w3.org/1999/xlink" xml:space="preserve" xmlns:serif="http://www.serif.com/" style="fill-rule:evenodd;clip-rule:evenodd;stroke-linecap:round;stroke-linejoin:round;stroke-miterlimit:1.5;">
    <g transform="matrix(0.387189,0,0,0.387189,-650.93,-490.643)">
        <path d="M2152.22,1664.36C2131.64,1656.96 2069.39,1659.03 2033.1,1849.78C2052.08,1813.29 2074.79,1770.94 2093.67,1750.78C2122.59,1719.9 2134.57,1719.43 2134.57,1719.43C2134.57,1719.43 2103.95,1951.97 2112.78,1977.88C2121.62,2003.79 2152.32,1984.55 2163.46,1971.68C2176.22,1956.96 2239.35,1759.24 2318.31,1974.34C2324.98,1992.53 2382.61,1973.33 2382.61,1973.33" style="fill:rgb(110,110,110);stroke:rgb(110,110,110);stroke-width:19.74px;"/>
    </g>
    <g transform="matrix(0.387189,0,0,0.387189,-650.93,-490.643)">
        <path d="M2149.82,1659.39C2001.85,1590.4 2036.08,1371.07 2100.65,1328.36C2112.08,1320.79 2153.68,1400.84 2182.61,1397.27C2236.66,1390.61 2301.91,1391.87 2301.91,1391.87C2301.91,1391.87 2375.53,1319.51 2380.19,1328.12C2539.05,1621.22 2294.53,1662.79 2344.84,1665.8C2378.67,1667.83 2394.61,1686.54 2407.58,1710.52C2421.84,1736.9 2426.19,1776.51 2437.61,1864.61C2379.02,1712.65 2338.13,1703.85 2338.13,1703.85C2338.13,1703.85 2363.14,1915.71 2382.61,1973.33" style="fill:rgb(110,110,110);stroke:rgb(110,110,110);stroke-width:19.74px;"/>
    </g>
    <g transform="matrix(0.387189,0,0,0.387189,-650.93,-490.643)">
        <path d="M2159.32,1671.08C2159.32,1672.69 2159.87,1672.73 2161.29,1674.15C2162.73,1675.59 2163.16,1678.52 2164.14,1680.28C2165.41,1682.58 2167.92,1683.99 2169.39,1686.19C2173.62,1692.54 2176.03,1700.09 2180.34,1706.56C2186.01,1715.06 2194.64,1722.68 2199.17,1731.74C2205.81,1745.02 2215.33,1756.34 2223.04,1768.97C2226.39,1774.45 2229.14,1781.65 2233.33,1786.49C2235.23,1788.67 2237.47,1790.19 2239.68,1791.96C2243.08,1794.67 2245.43,1799.19 2248.88,1802.25C2255.12,1807.79 2262.06,1813.43 2267.49,1819.77C2271.2,1824.1 2275.91,1827.93 2279.32,1832.47C2283.98,1838.69 2288.38,1845.03 2293.33,1851.09C2299.6,1858.75 2303.83,1867.84 2309.54,1875.83C2319.88,1890.31 2330.92,1904.24 2341.29,1918.75C2346.83,1926.51 2349.37,1936.3 2354.21,1944.37C2356.2,1947.69 2360.87,1950.15 2363.41,1952.69" style="fill:rgb(110,110,110);stroke:rgb(110,110,110);stroke-width:19.74px;"/>
    </g>
    <g transform="matrix(0.289201,0,0,0.566752,-430.915,-772.187)">
        <ellipse cx="2237.3" cy="1549.3" rx="109.924" ry="54.962" style="fill:white;stroke:black;stroke-width:16.99px;"/>
    </g>
    <g transform="matrix(0.387189,0,0,0.387189,-660.808,-487.101)">
        <circle cx="2246.22" cy="1549.66" r="19.496" style="fill:rgb(110,110,110);stroke:black;stroke-width:19.74px;"/>
    </g>
    <g transform="matrix(0.342436,-0.308413,0.350987,0.389706,-1105.77,188.545)">
        <ellipse cx="2212.94" cy="1571.21" rx="2.4" ry="4.799" style="fill:rgb(110,110,110);stroke:rgb(110,110,110);stroke-width:2.03px;stroke-linecap:butt;stroke-miterlimit:1.41421;"/>
    </g>
    <g transform="matrix(1.55502,0,0,1.55502,197.453,161.007)">
        <path d="M24,4.557C23.117,4.949 22.168,5.213 21.172,5.332C22.189,4.723 22.97,3.758 23.337,2.608C22.386,3.172 21.332,3.582 20.21,3.803C19.313,2.846 18.032,2.248 16.616,2.248C13.437,2.248 11.101,5.214 11.819,8.293C7.728,8.088 4.1,6.128 1.671,3.149C0.381,5.362 1.002,8.257 3.194,9.723C2.388,9.697 1.628,9.476 0.965,9.107C0.911,11.388 2.546,13.522 4.914,13.997C4.221,14.185 3.462,14.229 2.69,14.081C3.316,16.037 5.134,17.46 7.29,17.5C5.22,19.123 2.612,19.848 0,19.54C2.179,20.937 4.768,21.752 7.548,21.752C16.69,21.752 21.855,14.031 21.543,7.106C22.505,6.411 23.34,5.544 24,4.557Z" style="fill-rule:nonzero;stroke:black;stroke-width:0.64px;stroke-linecap:butt;stroke-miterlimit:1.41421;"/>
    </g>
</svg>
